<svg width="38" height="64" viewBox="0 0 38 64" xmlns="http://www.w3.org/2000/svg">
    <path d="M24.635 20.856c7.11 0 12.807 5.76 12.968 12.958l.004.314v5.726c0 2.757-2.137 5.003-4.818 5.116l-.212.004h-.86v11.79c0 3.975-3.177 7.208-7.082 7.208a6.963 6.963 0 0 1-1.5-.162c3.187-.703 5.582-3.595 5.582-7.046v-11.79h.86c2.78 0 5.03-2.29 5.03-5.12v-5.726c0-6.826-4.976-12.43-11.472-13.185.328-.038.66-.064.995-.077l.505-.01zm-5.663-.038c7.214 0 12.972 5.928 12.972 13.271v5.727c0 2.83-2.25 5.12-5.03 5.12h-.86v11.79c0 3.974-3.177 7.208-7.082 7.208S11.89 60.7 11.89 56.725V44.87h-.86c-2.78 0-5.03-2.29-5.03-5.12v-5.727c0-7.276 5.758-13.204 12.972-13.204zm-5.529 0 .505.01c.336.012.667.038.995.076C8.447 21.66 3.47 27.264 3.47 34.09v5.727c0 2.83 2.25 5.12 5.03 5.12h.86v11.79c0 3.45 2.395 6.342 5.582 7.045a6.963 6.963 0 0 1-1.5.163c-3.905 0-7.082-3.234-7.082-7.209v-11.79h-.86l-.213-.004c-2.68-.113-4.817-2.358-4.817-5.115v-5.727l.004-.313c.16-7.198 5.857-12.958 12.968-12.958zM19.17 0c4.302.068 7.677 3.705 7.611 8.017l-.066 2.358c-.067 4.379-3.64 7.814-7.876 7.747-4.301-.067-7.676-3.705-7.61-8.017l.066-2.358C11.36 3.37 14.935-.066 19.17.001zm6 0c4.22.066 7.547 3.567 7.611 7.769v.248l-.066 2.358c-.067 4.379-3.64 7.814-7.876 7.747a7.613 7.613 0 0 1-1.379-.147c3.49-.701 6.197-3.794 6.255-7.6l.066-2.358c.059-3.838-2.61-7.142-6.23-7.87a7.606 7.606 0 0 1 1.62-.147zm-12.098 0a7.606 7.606 0 0 1 1.62.148c-3.621.727-6.29 4.03-6.23 7.869l.065 2.358c.058 3.806 2.765 6.899 6.254 7.6-.446.09-.906.14-1.378.147-4.236.067-7.81-3.368-7.876-7.747l-.066-2.358V7.77C5.525 3.568 8.853.067 13.071.001z" fill="#FFF" fill-rule="nonzero" opacity=".4"/>
</svg>
